<?xml version="1.0" encoding="UTF-8" standalone="no"?>
<!DOCTYPE svg PUBLIC "-//W3C//DTD SVG 1.1//EN" "http://www.w3.org/Graphics/SVG/1.1/DTD/svg11.dtd">
<svg xmlns="http://www.w3.org/2000/svg" version="1.1" viewBox="0.00 0.00 512.00 512.00">
<g stroke-width="2.00" fill="none" stroke-linecap="butt">
<path stroke="#eaeaea" stroke-opacity="0.541" vector-effect="non-scaling-stroke" d="
  M 270.68 0.00
  Q 294.19 1.56 317.05 6.85"
/>
<path stroke="#eaeaea" stroke-opacity="0.541" vector-effect="non-scaling-stroke" d="
  M 319.23 7.37
  Q 388.42 25.24 437.63 75.12
  Q 496.93 135.23 509.04 220.27"
/>
<path stroke="#eaeaea" stroke-opacity="0.541" vector-effect="non-scaling-stroke" d="
  M 509.77 281.52
  Q 509.31 283.96 508.64 289.43
  Q 507.26 300.80 503.06 317.79"
/>
<path stroke="#eaeaea" stroke-opacity="0.541" vector-effect="non-scaling-stroke" d="
  M 500.78 326.23
  Q 476.47 403.11 416.01 451.67
  Q 388.20 474.00 356.72 487.45
  C 285.42 517.92 204.25 513.74 136.13 477.11
  A 1.19 1.18 -38.0 0 0 135.29 477.01
  L 2.41 512.00"
/>
<path stroke="#eaeaea" stroke-opacity="0.541" vector-effect="non-scaling-stroke" d="
  M 1.39 510.16
  L 36.73 381.08
  A 1.32 1.29 38.7 0 0 36.61 380.10
  Q 5.27 324.64 3.28 262.27
  Q 0.85 186.45 40.39 121.59
  C 77.80 60.21 139.63 17.66 210.15 4.15
  Q 216.79 2.88 228.48 1.34"
/>
<path stroke="#9ddfa6" vector-effect="non-scaling-stroke" d="
  M 52.14 203.97
  C 40.65 252.60 46.04 302.44 67.91 347.24"
/>
<path stroke="#94d99e" vector-effect="non-scaling-stroke" d="
  M 67.91 347.24
  Q 74.67 360.72 82.91 373.07
  A 2.04 2.01 36.2 0 1 83.18 374.72
  L 62.23 451.27
  A 0.33 0.33 0.0 0 0 62.63 451.68
  L 141.29 430.99
  A 1.78 1.76 -36.1 0 1 142.69 431.20
  Q 192.75 462.86 250.75 464.68
  C 349.50 467.78 436.52 401.42 461.34 306.48"
/>
<path stroke="#9ddfa6" vector-effect="non-scaling-stroke" d="
  M 461.34 306.48
  Q 474.39 254.66 461.75 202.69"
/>
<path stroke="#a4e3ab" vector-effect="non-scaling-stroke" d="
  M 461.75 202.69
  C 444.78 133.80 392.89 77.45 326.28 54.47
  C 246.30 26.87 157.57 49.72 100.85 112.35
  Q 65.05 151.88 52.14 203.97"
/>
<path stroke="#44c555" vector-effect="non-scaling-stroke" d="
  M 461.75 202.69
  C 443.55 208.82 425.55 209.70 405.36 209.78
  Q 364.93 209.95 275.31 209.84
  C 259.56 209.82 242.06 209.88 227.63 205.30
  Q 221.84 203.46 214.85 199.50"
/>
<path stroke="#a4e3ab" vector-effect="non-scaling-stroke" d="
  M 214.85 199.50
  Q 204.80 173.93 194.32 149.28
  C 191.71 143.14 188.23 137.01 180.75 136.68
  C 170.83 136.25 160.73 135.02 152.56 142.30
  C 139.49 153.93 130.83 169.24 128.49 187.57"
/>
<path stroke="#44c555" vector-effect="non-scaling-stroke" d="
  M 128.49 187.57
  Q 119.27 202.48 103.93 206.23
  C 86.69 210.44 69.13 208.52 52.14 203.97"
/>
<path stroke="#9ddfa6" vector-effect="non-scaling-stroke" d="
  M 214.85 199.50
  Q 213.42 209.52 206.23 217.80
  C 203.08 221.42 200.20 225.01 197.35 227.90
  C 193.64 231.67 191.87 235.16 194.51 239.74
  C 210.55 267.61 233.02 290.97 261.66 306.58
  Q 270.50 311.40 283.77 317.01
  Q 290.25 319.74 295.08 314.12
  Q 309.26 297.63 314.86 289.72
  C 317.44 286.08 320.50 283.80 324.58 284.92
  Q 331.68 286.89 338.33 290.09
  Q 349.85 295.65 361.27 301.33"
/>
<path stroke="#94d99e" vector-effect="non-scaling-stroke" d="
  M 361.27 301.33
  Q 371.16 306.09 380.98 310.94
  Q 385.77 313.31 385.70 319.00
  C 385.59 328.36 383.79 338.17 380.53 345.60
  C 375.70 356.60 362.24 365.46 351.62 370.38
  C 337.30 377.03 319.47 376.53 304.41 372.62
  Q 282.60 366.95 260.39 357.82
  C 234.60 347.22 211.73 329.99 192.09 310.09"
/>
<path stroke="#9ddfa6" vector-effect="non-scaling-stroke" d="
  M 192.09 310.09
  Q 174.94 292.56 164.41 277.83
  C 151.90 260.35 141.51 246.42 134.13 227.82
  Q 126.47 208.53 128.49 187.57"
/>
<path stroke="#34bc48" vector-effect="non-scaling-stroke" d="
  M 461.34 306.48
  Q 434.38 317.03 405.50 313.01
  C 390.44 310.91 375.77 305.85 361.27 301.33"
/>
<path stroke="#34bc48" vector-effect="non-scaling-stroke" d="
  M 192.09 310.09
  Q 193.75 314.08 195.09 316.15
  Q 196.92 318.98 203.87 329.19
  C 212.70 342.18 196.67 343.50 188.58 344.07
  Q 177.01 344.89 163.20 344.86
  C 129.95 344.79 100.17 344.39 67.91 347.24"
/>
</g>
<path fill="#fcfcfc" d="
  M 270.68 0.00
  Q 294.19 1.56 317.05 6.85
  L 319.23 7.37
  Q 388.42 25.24 437.63 75.12
  Q 496.93 135.23 509.04 220.27
  Q 512.97 250.85 509.77 281.52
  Q 509.31 283.96 508.64 289.43
  Q 507.26 300.80 503.06 317.79
  L 500.78 326.23
  Q 476.47 403.11 416.01 451.67
  Q 388.20 474.00 356.72 487.45
  C 285.42 517.92 204.25 513.74 136.13 477.11
  A 1.19 1.18 -38.0 0 0 135.29 477.01
  L 2.41 512.00
  L 1.24 512.00
  Q 0.60 511.35 1.39 510.16
  L 36.73 381.08
  A 1.32 1.29 38.7 0 0 36.61 380.10
  Q 5.27 324.64 3.28 262.27
  Q 0.85 186.45 40.39 121.59
  C 77.80 60.21 139.63 17.66 210.15 4.15
  Q 216.79 2.88 228.48 1.34
  L 243.47 0.00
  L 270.68 0.00
  Z
  M 52.14 203.97
  C 40.65 252.60 46.04 302.44 67.91 347.24
  Q 74.67 360.72 82.91 373.07
  A 2.04 2.01 36.2 0 1 83.18 374.72
  L 62.23 451.27
  A 0.33 0.33 0.0 0 0 62.63 451.68
  L 141.29 430.99
  A 1.78 1.76 -36.1 0 1 142.69 431.20
  Q 192.75 462.86 250.75 464.68
  C 349.50 467.78 436.52 401.42 461.34 306.48
  Q 474.39 254.66 461.75 202.69
  C 444.78 133.80 392.89 77.45 326.28 54.47
  C 246.30 26.87 157.57 49.72 100.85 112.35
  Q 65.05 151.88 52.14 203.97
  Z"
/>
<path fill="#010202" fill-opacity="0.078" d="
  M 298.84 0.00
  Q 308.80 1.88 317.05 6.85
  Q 294.19 1.56 270.68 0.00
  L 298.84 0.00
  Z"
/>
<path fill="#010202" fill-opacity="0.078" d="
  M 228.48 1.34
  Q 216.79 2.88 210.15 4.15
  C 139.63 17.66 77.80 60.21 40.39 121.59
  Q 0.85 186.45 3.28 262.27
  Q 5.27 324.64 36.61 380.10
  A 1.32 1.29 38.7 0 1 36.73 381.08
  L 1.39 510.16
  Q 2.63 490.95 6.68 476.11
  Q 21.45 421.98 22.70 417.34
  C 27.31 400.25 28.99 385.35 22.74 368.20
  Q 20.21 361.29 15.93 350.01
  Q 6.70 325.71 2.70 299.04
  Q 1.23 289.29 0.00 279.49
  L 0.00 233.13
  Q 0.72 226.04 1.35 218.93
  C 2.80 202.43 6.13 187.17 11.60 171.53
  C 35.26 103.90 85.75 49.01 151.69 20.39
  Q 177.38 9.24 199.44 4.77
  Q 211.55 2.32 228.48 1.34
  Z"
/>
<path fill="#010202" fill-opacity="0.078" d="
  M 509.04 220.27
  Q 496.93 135.23 437.63 75.12
  Q 388.42 25.24 319.23 7.37
  Q 334.24 8.39 342.76 10.74
  Q 353.99 13.83 372.24 22.41
  Q 379.62 25.89 387.00 30.93
  Q 389.83 32.87 401.37 40.13
  C 416.64 49.75 429.18 63.09 443.78 77.98
  C 461.83 96.38 476.96 118.71 489.16 141.17
  Q 494.91 151.76 498.38 165.47
  Q 499.70 170.67 507.36 198.06
  Q 510.57 209.52 509.04 220.27
  Z"
/>
<path fill="#4bc95a" d="
  M 461.75 202.69
  C 443.55 208.82 425.55 209.70 405.36 209.78
  Q 364.93 209.95 275.31 209.84
  C 259.56 209.82 242.06 209.88 227.63 205.30
  Q 221.84 203.46 214.85 199.50
  Q 204.80 173.93 194.32 149.28
  C 191.71 143.14 188.23 137.01 180.75 136.68
  C 170.83 136.25 160.73 135.02 152.56 142.30
  C 139.49 153.93 130.83 169.24 128.49 187.57
  Q 119.27 202.48 103.93 206.23
  C 86.69 210.44 69.13 208.52 52.14 203.97
  Q 65.05 151.88 100.85 112.35
  C 157.57 49.72 246.30 26.87 326.28 54.47
  C 392.89 77.45 444.78 133.80 461.75 202.69
  Z"
/>
<path fill="#fcfcfc" d="
  M 214.85 199.50
  Q 213.42 209.52 206.23 217.80
  C 203.08 221.42 200.20 225.01 197.35 227.90
  C 193.64 231.67 191.87 235.16 194.51 239.74
  C 210.55 267.61 233.02 290.97 261.66 306.58
  Q 270.50 311.40 283.77 317.01
  Q 290.25 319.74 295.08 314.12
  Q 309.26 297.63 314.86 289.72
  C 317.44 286.08 320.50 283.80 324.58 284.92
  Q 331.68 286.89 338.33 290.09
  Q 349.85 295.65 361.27 301.33
  Q 371.16 306.09 380.98 310.94
  Q 385.77 313.31 385.70 319.00
  C 385.59 328.36 383.79 338.17 380.53 345.60
  C 375.70 356.60 362.24 365.46 351.62 370.38
  C 337.30 377.03 319.47 376.53 304.41 372.62
  Q 282.60 366.95 260.39 357.82
  C 234.60 347.22 211.73 329.99 192.09 310.09
  Q 174.94 292.56 164.41 277.83
  C 151.90 260.35 141.51 246.42 134.13 227.82
  Q 126.47 208.53 128.49 187.57
  C 130.83 169.24 139.49 153.93 152.56 142.30
  C 160.73 135.02 170.83 136.25 180.75 136.68
  C 188.23 137.01 191.71 143.14 194.32 149.28
  Q 204.80 173.93 214.85 199.50
  Z"
/>
<path fill="#3dc14f" d="
  M 128.49 187.57
  Q 126.47 208.53 134.13 227.82
  C 141.51 246.42 151.90 260.35 164.41 277.83
  Q 174.94 292.56 192.09 310.09
  Q 193.75 314.08 195.09 316.15
  Q 196.92 318.98 203.87 329.19
  C 212.70 342.18 196.67 343.50 188.58 344.07
  Q 177.01 344.89 163.20 344.86
  C 129.95 344.79 100.17 344.39 67.91 347.24
  C 46.04 302.44 40.65 252.60 52.14 203.97
  C 69.13 208.52 86.69 210.44 103.93 206.23
  Q 119.27 202.48 128.49 187.57
  Z"
/>
<path fill="#3dc14f" d="
  M 461.75 202.69
  Q 474.39 254.66 461.34 306.48
  Q 434.38 317.03 405.50 313.01
  C 390.44 310.91 375.77 305.85 361.27 301.33
  Q 349.85 295.65 338.33 290.09
  Q 331.68 286.89 324.58 284.92
  C 320.50 283.80 317.44 286.08 314.86 289.72
  Q 309.26 297.63 295.08 314.12
  Q 290.25 319.74 283.77 317.01
  Q 270.50 311.40 261.66 306.58
  C 233.02 290.97 210.55 267.61 194.51 239.74
  C 191.87 235.16 193.64 231.67 197.35 227.90
  C 200.20 225.01 203.08 221.42 206.23 217.80
  Q 213.42 209.52 214.85 199.50
  Q 221.84 203.46 227.63 205.30
  C 242.06 209.88 259.56 209.82 275.31 209.84
  Q 364.93 209.95 405.36 209.78
  C 425.55 209.70 443.55 208.82 461.75 202.69
  Z"
/>
<path fill="#010202" fill-opacity="0.078" d="
  M 503.06 317.79
  Q 507.26 300.80 508.64 289.43
  Q 509.31 283.96 509.77 281.52
  C 513.28 292.75 507.96 308.02 503.06 317.79
  Z"
/>
<path fill="#2bb640" d="
  M 461.34 306.48
  C 436.52 401.42 349.50 467.78 250.75 464.68
  Q 192.75 462.86 142.69 431.20
  A 1.78 1.76 -36.1 0 0 141.29 430.99
  L 62.63 451.68
  A 0.33 0.33 0.0 0 1 62.23 451.27
  L 83.18 374.72
  A 2.04 2.01 36.2 0 0 82.91 373.07
  Q 74.67 360.72 67.91 347.24
  C 100.17 344.39 129.95 344.79 163.20 344.86
  Q 177.01 344.89 188.58 344.07
  C 196.67 343.50 212.70 342.18 203.87 329.19
  Q 196.92 318.98 195.09 316.15
  Q 193.75 314.08 192.09 310.09
  C 211.73 329.99 234.60 347.22 260.39 357.82
  Q 282.60 366.95 304.41 372.62
  C 319.47 376.53 337.30 377.03 351.62 370.38
  C 362.24 365.46 375.70 356.60 380.53 345.60
  C 383.79 338.17 385.59 328.36 385.70 319.00
  Q 385.77 313.31 380.98 310.94
  Q 371.16 306.09 361.27 301.33
  C 375.77 305.85 390.44 310.91 405.50 313.01
  Q 434.38 317.03 461.34 306.48
  Z"
/>
<path fill="#010202" fill-opacity="0.078" d="
  M 303.50 512.00
  L 209.17 512.00
  Q 184.28 505.71 175.39 502.20
  Q 157.91 495.32 150.83 492.76
  C 134.86 486.99 120.48 488.84 104.29 493.15
  Q 68.30 502.73 32.28 512.00
  L 27.14 512.00
  L 17.35 512.00
  L 2.41 512.00
  L 135.29 477.01
  A 1.19 1.18 -38.0 0 1 136.13 477.11
  C 204.25 513.74 285.42 517.92 356.72 487.45
  Q 388.20 474.00 416.01 451.67
  Q 476.47 403.11 500.78 326.23
  C 493.38 361.78 477.54 392.77 455.41 422.10
  Q 441.69 440.27 429.29 451.53
  C 395.65 482.05 349.40 505.91 303.50 512.00
  Z"
/>
</svg>
